<?xml version="1.0" standalone="no"?>
<!DOCTYPE svg PUBLIC "-//W3C//DTD SVG 20010904//EN"
 "http://www.w3.org/TR/2001/REC-SVG-20010904/DTD/svg10.dtd">
<svg version="1.0" xmlns="http://www.w3.org/2000/svg"
 width="800.000000pt" height="800.000000pt" viewBox="0 0 800.000000 800.000000"
 preserveAspectRatio="xMidYMid meet">
<metadata>
Created by potrace 1.11, written by Peter Selinger 2001-2013
</metadata>
<g transform="translate(0.000000,800.000000) scale(0.100000,-0.100000)"
fill="#000000" stroke="none">
<path d="M3186 6669 c-224 -21 -387 -70 -518 -154 -137 -89 -214 -197 -239
-336 -24 -135 19 -299 124 -469 25 -41 45 -76 44 -77 -1 0 -22 3 -47 7 -167
33 -398 -13 -625 -125 -163 -79 -160 -76 -78 -110 37 -15 69 -29 71 -31 2 -1
-17 -28 -42 -59 -83 -101 -140 -243 -152 -375 l-7 -68 43 9 c23 5 44 8 45 7 1
-2 5 -33 7 -70 l6 -67 -202 -198 c-111 -109 -232 -236 -268 -283 -347 -449
-451 -951 -317 -1532 20 -84 22 -87 52 -94 55 -11 309 -95 363 -119 28 -13
105 -57 169 -99 65 -42 119 -75 121 -73 2 2 -20 84 -50 183 -29 98 -50 180
-46 182 25 10 282 -110 390 -182 l79 -53 48 128 c26 71 50 125 54 121 3 -4 18
-38 33 -77 124 -319 371 -623 761 -938 l130 -105 3 109 c1 60 4 109 7 109 2 0
39 -25 82 -56 286 -206 650 -364 1042 -454 113 -26 337 15 591 108 170 62 469
214 620 316 69 46 126 83 128 81 1 -1 9 -42 18 -91 9 -49 17 -90 19 -92 7 -7
259 202 359 298 226 217 410 480 506 725 13 33 27 64 30 68 4 4 26 -45 50
-110 24 -65 46 -122 50 -126 10 -12 149 253 199 380 203 512 210 1078 19 1547
-32 78 -38 103 -29 115 63 88 106 197 117 297 l7 54 38 -6 c46 -8 46 -10 23
121 -19 112 -53 188 -127 288 l-57 77 72 34 73 33 -95 48 c-221 111 -387 159
-555 158 -60 -1 -132 -6 -160 -11 -47 -10 -52 -9 -86 18 -260 207 -605 438
-825 554 -67 35 -72 40 -78 78 -13 83 -74 162 -170 222 -114 72 -226 101 -359
94 -70 -4 -93 -9 -138 -34 l-54 -31 -110 29 c-148 38 -342 73 -505 93 -166 19
-521 27 -654 14z"/>
</g>
</svg>
